<svg viewBox="0 0 100 100" xmlns="http://www.w3.org/2000/svg">
  <defs>
    <linearGradient id="grad1" x1="0%" y1="0%" x2="0%" y2="100%">
      <stop offset="0%" style="stop-color:#7bc72b;stop-opacity:1" />
      <stop offset="100%" style="stop-color:#218d2d;stop-opacity:1" />
    </linearGradient>
    <linearGradient id="grad2" x1="0%" y1="0%" x2="0%" y2="100%">
      <stop offset="0%" style="stop-color:#489f30;stop-opacity:1" />
      <stop offset="100%" style="stop-color:#1a6f23;stop-opacity:1" />
    </linearGradient>
  </defs>
  
  <path d="M 28 35 
           C 25 50, 30 75, 52 75 
           C 60 75, 63 68, 63 65
           C 61 68, 55 69, 48 65
           C 40 60, 33 50, 36 32
           C 37 25, 30 25, 28 35 Z" 
        fill="url(#grad1)"/>

  <path d="M 62 25 
           C 78 25, 78 40, 68 53
           C 65 57, 65 51, 65 48
           C 62 40, 58 35, 58 30
           C 58 25, 60 25, 62 25 Z" 
        fill="url(#grad2)"/>
</svg>
